<?xml version="1.0" encoding="UTF-8"?>
<svg id="Gears" xmlns="http://www.w3.org/2000/svg" version="1.1" viewBox="0 0 160 160">
  <!-- Generator: Adobe Illustrator 29.8.2, SVG Export Plug-In . SVG Version: 2.1.1 Build 3)  -->
  <defs>
    <style>
      .st0 {
        fill: none;
        stroke: #0f0f0f;
        stroke-miterlimit: 10;
      }
    </style>
  </defs>
  <path class="st0" d="M61.36,48.19l5.8-15.39,8.52,3.12c2.36-3.64,5.23-6.74,8.44-9.26l-2.84-9.37,14-6.37,4.02,8.83c3.9-.72,7.92-.75,11.93,0l4.02-8.83,14,6.37-2.84,9.36c3.31,2.6,6.13,5.74,8.43,9.27l8.53-3.12,5.8,15.39-8.04,4.42c.65,4.28.68,8.7,0,13.11l8.03,4.42-5.8,15.39-8.52-3.12c-2.36,3.64-5.23,6.74-8.44,9.26l2.84,9.37-14,6.37-4.02-8.83c-3.9.72-7.92.75-11.93,0l-4.02,8.83-14-6.37,2.84-9.36c-3.31-2.6-6.13-5.74-8.43-9.27l-8.53,3.12-5.8-15.39,8.04-4.42c-.65-4.28-.68-8.7,0-13.11l-8.03-4.42Z"/>
  <path class="st0" d="M91.83,65.28c3.08,8.15,11.59,12.02,19.01,8.64,7.42-3.38,10.95-12.73,7.87-20.89-3.08-8.15-11.59-12.02-19.01-8.64-7.42,3.38-10.95,12.73-7.87,20.89Z"/>
  <path class="st0" d="M49.97,55.39c-2.12-5.62-7.99-8.28-13.1-5.95-5.12,2.33-7.55,8.77-5.43,14.39.88,2.33,2.4,4.15,4.25,5.32"/>
  <path class="st0" d="M12.53,108.57l3.97-10.53,7.41,3.37c1.49-2.29,3.3-4.25,5.32-5.84l-3.07-8.15,9.58-4.36,3.07,8.15c2.46-.45,4.99-.47,7.53,0l3.07-8.14,9.58,4.36-3.07,8.14c2.09,1.64,3.87,3.62,5.32,5.85l7.41-3.37,3.97,10.53-7.41,3.37c.41,2.7.43,5.49,0,8.27l7.41,3.37-3.97,10.53-7.41-3.37c-1.49,2.29-3.3,4.25-5.33,5.84l3.07,8.15-9.58,4.36-3.07-8.15c-2.46.45-4.99.47-7.53,0l-3.07,8.14-9.58-4.36,3.07-8.14c-2.09-1.64-3.87-3.62-5.32-5.85l-7.41,3.37-3.97-10.53,7.41-3.37c-.41-2.7-.43-5.49,0-8.27l-7.41-3.37Z"/>
  <path class="st0" d="M23.18,74.95l-7.09,3.79-4.46-10.08,7.09-3.79c-.55-2.62-.71-5.36-.45-8.12l-7.45-2.83,3.33-10.59,7.45,2.83c1.34-2.35,3.01-4.39,4.91-6.08l-3.45-7.8,9.17-4.9,3.45,7.8c2.39-.6,4.88-.78,7.39-.49l2.58-8.19,9.64,3.66-2.58,8.19"/>
  <path class="st0" d="M33.27,111.84c-2.13,5.65.31,12.12,5.45,14.46,5.14,2.34,11.03-.34,13.16-5.99,2.13-5.65-.31-12.12-5.45-14.46-5.14-2.34-11.03.34-13.16,5.99Z"/>
</svg>